<?xml version="1.0" standalone="no"?>
<!DOCTYPE svg PUBLIC "-//W3C//DTD SVG 20010904//EN"
 "http://www.w3.org/TR/2001/REC-SVG-20010904/DTD/svg10.dtd">
<svg version="1.0" xmlns="http://www.w3.org/2000/svg"
 width="317.000000pt" height="317.000000pt" viewBox="0 0 317.000000 317.000000"
 preserveAspectRatio="xMidYMid meet">

<g transform="translate(0.000000,317.000000) scale(0.100000,-0.100000)"
fill="#000000" stroke="none">
<path d="M865 2451 c-48 -29 -67 -57 -72 -104 l-5 -45 -55 -6 c-93 -11 -157
-54 -188 -128 -13 -32 -15 -123 -15 -685 0 -609 2 -650 19 -689 23 -51 81 -99
137 -113 29 -8 331 -11 957 -11 1007 0 981 -2 1046 62 70 69 66 21 66 753 0
726 4 683 -62 749 -62 63 -39 61 -709 64 l-611 3 -6 39 c-3 21 -15 53 -27 71
-38 52 -69 59 -267 59 -156 0 -182 -2 -208 -19z m292 -375 c27 -30 33 -43 33
-82 0 -115 -136 -176 -213 -96 -49 52 -56 113 -19 170 24 37 62 53 116 48 42
-3 55 -9 83 -40z m974 -42 c336 -119 489 -497 329 -814 -71 -141 -213 -255
-367 -295 -73 -19 -222 -19 -293 0 -200 53 -363 218 -415 420 -19 76 -19 204
0 280 53 201 211 363 411 420 72 21 263 14 335 -11z"/>
<path d="M1825 1846 c-109 -34 -194 -105 -240 -199 -79 -162 -48 -335 82 -458
175 -166 447 -138 586 61 147 211 44 514 -202 590 -71 23 -166 25 -226 6z"/>
</g>
</svg>
